<svg width="45" height="36" viewBox="0 0 45 36" fill="none" xmlns="http://www.w3.org/2000/svg">
<path d="M18.1556 35.56H13.4756C11.9023 35.56 10.7423 35.12 9.99563 34.24C9.27563 33.36 8.91563 32.2267 8.91563 30.84V29.36C7.50229 29.1733 6.27563 28.72 5.23563 28C4.22229 27.2533 3.38229 26.28 2.71563 25.08C2.04896 23.8533 1.55563 22.4 1.23563 20.72C0.915625 19.0133 0.755625 17.12 0.755625 15.04C0.755625 12.7733 0.942292 10.7467 1.31563 8.96C1.68896 7.14667 2.27563 5.62667 3.07563 4.4C3.87563 3.17333 4.88896 2.24 6.11563 1.6C7.34229 0.933331 8.80896 0.599998 10.5156 0.599998C12.2223 0.599998 13.689 0.933331 14.9156 1.6C16.1423 2.24 17.1556 3.17333 17.9556 4.4C18.7556 5.62667 19.3423 7.14667 19.7156 8.96C20.089 10.7467 20.2756 12.7733 20.2756 15.04C20.2756 19.2267 19.6223 22.5733 18.3156 25.08C17.009 27.56 14.9423 28.9867 12.1156 29.36V32.84H18.1556V35.56ZM10.5156 26.56C11.6356 26.56 12.5823 26.3467 13.3556 25.92C14.129 25.4667 14.769 24.84 15.2756 24.04C15.7823 23.24 16.1423 22.28 16.3556 21.16C16.5956 20.0133 16.7156 18.7333 16.7156 17.32V12.76C16.7156 11.3733 16.5956 10.1067 16.3556 8.96C16.1423 7.81333 15.7823 6.84 15.2756 6.04C14.769 5.24 14.129 4.62667 13.3556 4.2C12.5823 3.74667 11.6356 3.52 10.5156 3.52C9.39563 3.52 8.44896 3.74667 7.67563 4.2C6.90229 4.62667 6.26229 5.24 5.75563 6.04C5.24896 6.84 4.87563 7.81333 4.63563 8.96C4.42229 10.1067 4.31563 11.3733 4.31563 12.76V17.32C4.31563 18.7333 4.42229 20.0133 4.63563 21.16C4.87563 22.28 5.24896 23.24 5.75563 24.04C6.26229 24.84 6.90229 25.4667 7.67563 25.92C8.44896 26.3467 9.39563 26.56 10.5156 26.56ZM29.46 29H26.1V1.08H36.26C38.8467 1.08 40.82 1.78667 42.18 3.2C43.54 4.61333 44.22 6.58667 44.22 9.12C44.22 11.3867 43.6333 13.2 42.46 14.56C41.2867 15.92 39.58 16.7067 37.34 16.92L44.46 29H40.7L33.9 17.08H29.46V29ZM36.18 14.24C37.5933 14.24 38.6867 13.8933 39.46 13.2C40.26 12.48 40.66 11.4667 40.66 10.16V8.08C40.66 6.77333 40.26 5.77333 39.46 5.08C38.6867 4.36 37.5933 4 36.18 4H29.46V14.24H36.18Z" fill="url(#paint0_linear_37_26)"/>
<defs>
<linearGradient id="paint0_linear_37_26" x1="57" y1="20" x2="-36.5" y2="20.5" gradientUnits="userSpaceOnUse">
<stop stop-color="white"/>
<stop offset="1" stop-color="white" stop-opacity="0"/>
</linearGradient>
</defs>
</svg>
